# xmcd CD database file
#
# Track frame offsets:
#	150
#	11504
#	24794
#	34614
#	46314
#	57595
#	71664
#	83600
#	98718
#	110730
#	125016
#	138815
#	150709
#	161775
#	173675
#	190645
#	203218
#	218830
#	229188
#	242768
#
# Disc length: 3413 seconds
#
# Revision: 0
# Processed by: cddbd v1.5.1PL0 Copyright (c) Steve Scherf et al.
# Submitted via: CDex 1.40Beta9
#
DISCID=080d5314
DTITLE=Conway Twitty - 20 Greatest Hits
DYEAR=2004
DGENRE=Country
TTITLE0=It`s Only Make Believe
TTITLE1=Danny Boy
TTITLE2=I`ll Try
TTITLE3=To See My Angel Cry
TTITLE4=Hello Darlin`
TTITLE5=Fifteen Years Ago
TTITLE6=I Can`t See Me Without You
TTITLE7=Lost Her Love On Our Last Date
TTITLE8=She Needs Someone To Hold Her When She Cries
TTITLE9=You`ve Never Been This Far Before
TTITLE10=Baby`s Gone
TTITLE11=I`m Not Through Loving You Yet
TTITLE12=As Soon As I Hang Up The Phone
TTITLE13=Linda On My Mind
TTITLE14=Don`t Cry Joni
TTITLE15=This Time I`ve Hurt Her More Than She Loves Me
TTITLE16=Touch The Hand
TTITLE17=(I Can`t Belive) She Gives It All To Me
TTITLE18=The Games That Daddies Play
TTITLE19=After All The Good Is Gone
EXTD=YEAR: 2004 ID3G: 2
EXTT0=
EXTT1=
EXTT2=
EXTT3=
EXTT4=
EXTT5=
EXTT6=
EXTT7=
EXTT8=
EXTT9=
EXTT10=
EXTT11=
EXTT12=
EXTT13=
EXTT14=
EXTT15=
EXTT16=
EXTT17=
EXTT18=
EXTT19=
PLAYORDER=
